# xmcd
#
# Track frame offsets: 
#        150
#        19035
#        29967
#        39422
#        53445
#        65547
#        77572
#        88892
#        100430
#        115885
#        130600
#        133262
#        151740
#        169055
#        182252
#        198877
#        211070
#        225020
#        237940
#        252452
#        265807
#        279185
#        309045
#        313285
#
# Disc length: 4456 seconds
#
# Revision: 0
# Processed by: cddbd v1.5.1PL0 Copyright (c) Steve Scherf et al.
# Submitted via: ExactAudioCopy v0.95a3
#
DISCID=36116618
DTITLE=Holger Biege - Lieder atmen, Lieder tanken
DYEAR=2001
DGENRE=Blues
TTITLE0=Was ist los
TTITLE1=An jenem Morgen
TTITLE2=Irrenhaus
TTITLE3=Nimm mich so
TTITLE4=und der Tag ist leis gegangen
TTITLE5=Gott segnet die Kinder
TTITLE6=Kinderlied
TTITLE7=Meine Hände
TTITLE8=Robinson
TTITLE9=Schuld sind die anderen
TTITLE10=Klavier-Improvisation (I)
TTITLE11=Sagte mal ein Dichter
TTITLE12=Blues in deutsch
TTITLE13=Ich steck' in deiner Haut
TTITLE14=Weißes Licht
TTITLE15=Kann schon sein
TTITLE16=Brich mein Herz
TTITLE17=Zugvögel
TTITLE18=Gutenachtlied
TTITLE19=Reichtum der Welt
TTITLE20=Annabell
TTITLE21=Medley
TTITLE22=Klavier-Improvisation (II)
TTITLE23=Sagte mal ein Dichter (II)
EXTD=
EXTT0=
EXTT1=
EXTT2=
EXTT3=
EXTT4=
EXTT5=
EXTT6=
EXTT7=
EXTT8=
EXTT9=
EXTT10=
EXTT11=
EXTT12=
EXTT13=
EXTT14=
EXTT15=
EXTT16=
EXTT17=
EXTT18=
EXTT19=
EXTT20=
EXTT21=
EXTT22=
EXTT23=
PLAYORDER=
